<svg version="1.1" xmlns="http://www.w3.org/2000/svg" xmlns:xlink="http://www.w3.org/1999/xlink"
    width="225" height="65">
    <defs>
        <clipPath id="WPCcfrLwvIDU">
            <path fill="none" stroke="none" d=" M 0 0 L 225 0 L 225 65 L 0 65 L 0 0 Z" />
        </clipPath>
    </defs>
    <g transform="scale(1,1)" clip-path="url(#WPCcfrLwvIDU)">
        <g transform="translate(-59,-239)">
            <g transform="scale(21,21)">
                <g transform="translate(3.142857142857143,13.106710114285713)">
                    <path fill="rgb(0,0,0)" stroke="none" paint-order="stroke fill markers"
                        d=" M 0.554 -0.68 L 0.582 -0.455 L 0.557 -0.455 Q 0.544 -0.5650000000000001 0.515 -0.602 Q 0.47900000000000004 -0.649 0.377 -0.649 L 0.274 -0.649 Q 0.23500000000000001 -0.649 0.228 -0.637 L 0.228 -0.636 L 0.228 -0.636 L 0.228 -0.635 Q 0.225 -0.629 0.225 -0.609 L 0.225 -0.079 Q 0.225 -0.05 0.23700000000000002 -0.042 Q 0.253 -0.031 0.32 -0.031 L 0.353 -0.031 L 0.353 0 Q 0.317 -0.003 0.185 -0.003 Q 0.068 -0.003 0.033 0 L 0.033 -0.031 L 0.057 -0.031 Q 0.122 -0.031 0.132 -0.048 Q 0.136 -0.055 0.136 -0.078 L 0.136 -0.602 Q 0.136 -0.632 0.124 -0.64 Q 0.11 -0.649 0.057 -0.649 L 0.033 -0.649 L 0.033 -0.68 L 0.554 -0.68 Z" />
                </g>
                <g transform="translate(3.767857142857143,13.106710114285713)">
                    <path fill="rgb(0,0,0)" stroke="none" paint-order="stroke fill markers"
                        d=" M 0.331 0.24 L 0.331 0.24 Q 0.331 0.25 0.321 0.25 Q 0.309 0.25 0.268 0.209 Q 0.20600000000000002 0.147 0.165 0.062 Q 0.099 -0.074 0.099 -0.25 Q 0.099 -0.419 0.162 -0.555 Q 0.214 -0.666 0.294 -0.733 Q 0.315 -0.75 0.321 -0.75 Q 0.331 -0.75 0.331 -0.74 Q 0.331 -0.735 0.318 -0.723 Q 0.157 -0.559 0.157 -0.25 Q 0.157 0.058 0.314 0.218 Q 0.331 0.23500000000000001 0.331 0.24 Z" />
                </g>
                <g transform="translate(4.156857142857143,13.106710114285713)">
                    <path fill="rgb(0,0,0)" stroke="none" paint-order="stroke fill markers"
                        d=" M 0.47700000000000004 -0.23600000000000002 L 0.47700000000000004 -0.23600000000000002 L 0.47700000000000004 -0.17400000000000002 Q 0.542 -0.255 0.5750000000000001 -0.372 Q 0.585 -0.392 0.59 -0.393 Q 0.602 -0.393 0.602 -0.383 Q 0.602 -0.366 0.579 -0.307 Q 0.545 -0.221 0.487 -0.148 Q 0.47700000000000004 -0.128 0.47700000000000004 -0.113 Q 0.47700000000000004 -0.011 0.508 -0.011 Q 0.539 -0.011 0.558 -0.046 Q 0.561 -0.052000000000000005 0.5640000000000001 -0.06 Q 0.5680000000000001 -0.07 0.577 -0.07 Q 0.589 -0.07 0.589 -0.06 Q 0.589 -0.041 0.5640000000000001 -0.015 Q 0.538 0.011 0.505 0.011 Q 0.442 0.011 0.418 -0.058 Q 0.41600000000000004 -0.065 0.41400000000000003 -0.073 Q 0.309 0.011 0.203 0.011 Q 0.109 0.011 0.065 -0.064 Q 0.041 -0.105 0.041 -0.158 Q 0.041 -0.26 0.11900000000000001 -0.34700000000000003 Q 0.196 -0.433 0.293 -0.441 Q 0.302 -0.442 0.31 -0.442 Q 0.394 -0.442 0.44 -0.376 Q 0.44 -0.375 0.441 -0.375 Q 0.47700000000000004 -0.322 0.47700000000000004 -0.23600000000000002 M 0.41000000000000003 -0.099 L 0.41000000000000003 -0.099 Q 0.40800000000000003 -0.116 0.40800000000000003 -0.211 Q 0.40800000000000003 -0.334 0.381 -0.379 Q 0.369 -0.399 0.352 -0.40900000000000003 L 0.35100000000000003 -0.41000000000000003 L 0.35100000000000003 -0.41000000000000003 L 0.35000000000000003 -0.41000000000000003 Q 0.332 -0.42 0.309 -0.42 Q 0.23800000000000002 -0.42 0.181 -0.34 L 0.17300000000000001 -0.328 Q 0.137 -0.27 0.12 -0.166 Q 0.115 -0.138 0.115 -0.12 Q 0.115 -0.036000000000000004 0.17400000000000002 -0.016 Q 0.188 -0.011 0.20500000000000002 -0.011 Q 0.309 -0.011 0.41000000000000003 -0.099 Z" />
                </g>
                <g transform="translate(4.800857142857143,13.106710114285713)">
                    <path fill="rgb(0,0,0)" stroke="none" paint-order="stroke fill markers"
                        d=" M 0.289 -0.25 L 0.289 -0.25 Q 0.289 -0.081 0.226 0.055 Q 0.17400000000000002 0.166 0.094 0.233 Q 0.073 0.25 0.067 0.25 Q 0.057 0.25 0.057 0.24 Q 0.057 0.23500000000000001 0.07 0.223 Q 0.231 0.059000000000000004 0.231 -0.25 Q 0.231 -0.555 0.081 -0.712 L 0.076 -0.717 Q 0.057 -0.735 0.057 -0.74 Q 0.057 -0.75 0.067 -0.75 Q 0.079 -0.75 0.12 -0.709 Q 0.182 -0.647 0.223 -0.562 Q 0.289 -0.426 0.289 -0.25 Z" />
                </g>
                <g transform="translate(5.467634920634921,13.106710114285713)">
                    <path fill="rgb(0,0,0)" stroke="none" paint-order="stroke fill markers"
                        d=" M 0.687 -0.327 L 0.09 -0.327 Q 0.058 -0.327 0.056 -0.34700000000000003 Q 0.056 -0.367 0.089 -0.367 L 0.6880000000000001 -0.367 Q 0.72 -0.367 0.721 -0.34700000000000003 Q 0.721 -0.327 0.687 -0.327 M 0.6880000000000001 -0.133 L 0.089 -0.133 Q 0.057 -0.133 0.056 -0.153 Q 0.056 -0.17300000000000001 0.09 -0.17300000000000001 L 0.687 -0.17300000000000001 Q 0.719 -0.17300000000000001 0.721 -0.153 Q 0.721 -0.133 0.6880000000000001 -0.133 Z" />
                </g>
                <g transform="translate(6.523412698412698,11.745710114285712)">
                    <path fill="rgb(0,0,0)" stroke="none" paint-order="stroke fill markers"
                        d=" M 0.10595703125 2.1708984375 Q 0.130859375 2.19580078125 0.1669921875 2.19580078125 Q 0.203125 2.19580078125 0.23291015625 2.146240234375 Q 0.2626953125 2.0966796875 0.28515625 2.0224609375 Q 0.3076171875 1.9482421875 0.318115234375 1.898193359375 Q 0.32861328125 1.84814453125 0.34423828125 1.76904296875 Q 0.3583984375 1.6953125 0.37158203125 1.62109375 Q 0.384765625 1.546875 0.398681640625 1.463134765625 Q 0.41259765625 1.37939453125 0.427978515625 1.293212890625 Q 0.443359375 1.20703125 0.462890625 1.10986328125 Q 0.4892578125 0.98193359375 0.500732421875 0.927001953125 Q 0.51220703125 0.8720703125 0.53564453125 0.768310546875 Q 0.55908203125 0.66455078125 0.566650390625 0.631591796875 Q 0.57421875 0.5986328125 0.60986328125 0.451171875 L 0.623046875 0.39892578125 Q 0.6455078125 0.31103515625 0.65771484375 0.265869140625 Q 0.669921875 0.220703125 0.695556640625 0.155517578125 Q 0.72119140625 0.09033203125 0.755859375 0.045166015625 Q 0.79052734375 0 0.83203125 0 Q 0.861328125 0 0.886474609375 0.01318359375 Q 0.91162109375 0.0263671875 0.92724609375 0.04931640625 Q 0.94287109375 0.072265625 0.94287109375 0.10205078125 Q 0.94287109375 0.12353515625 0.9287109375 0.1376953125 Q 0.91455078125 0.15185546875 0.89306640625 0.15185546875 Q 0.87109375 0.15185546875 0.8564453125 0.1376953125 Q 0.841796875 0.12353515625 0.841796875 0.10205078125 Q 0.841796875 0.080078125 0.8564453125 0.0654296875 Q 0.87109375 0.05078125 0.89306640625 0.05078125 Q 0.8671875 0.02587890625 0.8330078125 0.02587890625 Q 0.814453125 0.02587890625 0.792236328125 0.080078125 Q 0.77001953125 0.13427734375 0.751220703125 0.207763671875 Q 0.732421875 0.28125 0.722412109375 0.330322265625 Q 0.71240234375 0.37939453125 0.6982421875 0.453125 Q 0.681640625 0.53662109375 0.670654296875 0.5986328125 Q 0.65966796875 0.66064453125 0.64404296875 0.751953125 Q 0.62841796875 0.84326171875 0.613525390625 0.92578125 Q 0.5986328125 1.00830078125 0.578125 1.11181640625 Q 0.56494140625 1.17724609375 0.5400390625 1.295654296875 Q 0.51513671875 1.4140625 0.507080078125 1.44970703125 Q 0.4990234375 1.4853515625 0.466064453125 1.6240234375 Q 0.43310546875 1.7626953125 0.43115234375 1.77099609375 L 0.4189453125 1.81689453125 Q 0.39306640625 1.9228515625 0.366943359375 2.003173828125 Q 0.3408203125 2.08349609375 0.290283203125 2.15283203125 Q 0.23974609375 2.22216796875 0.1669921875 2.22216796875 Q 0.12353515625 2.22216796875 0.08984375 2.19287109375 Q 0.05615234375 2.16357421875 0.05615234375 2.12109375 Q 0.05615234375 2.09912109375 0.07080078125 2.08447265625 Q 0.08544921875 2.06982421875 0.10693359375 2.06982421875 Q 0.12109375 2.06982421875 0.132568359375 2.07666015625 Q 0.14404296875 2.08349609375 0.150634765625 2.09521484375 Q 0.1572265625 2.10693359375 0.1572265625 2.12109375 Q 0.1572265625 2.142578125 0.142578125 2.15673828125 Q 0.1279296875 2.1708984375 0.10595703125 2.1708984375 Z" />
                </g>
                <g transform="translate(7.523412698412698,12.015985714285714) scale(0.7,0.7)">
                    <path fill="rgb(0,0,0)" stroke="none" paint-order="stroke fill markers"
                        d=" M 0.508 -0.272 Q 0.5670000000000001 -0.372 0.652 -0.41600000000000004 Q 0.7020000000000001 -0.442 0.754 -0.442 Q 0.85 -0.442 0.905 -0.353 Q 0.9430000000000001 -0.292 0.9430000000000001 -0.216 Q 0.9430000000000001 -0.112 0.879 -0.045 Q 0.8260000000000001 0.011 0.751 0.011 Q 0.663 0.011 0.581 -0.058 Q 0.559 -0.077 0.514 -0.131 L 0.491 -0.159 Q 0.432 -0.059000000000000004 0.34700000000000003 -0.015 Q 0.297 0.011 0.245 0.011 Q 0.149 0.011 0.094 -0.078 Q 0.056 -0.139 0.056 -0.215 Q 0.056 -0.319 0.12 -0.386 Q 0.17300000000000001 -0.442 0.248 -0.442 Q 0.336 -0.442 0.418 -0.373 Q 0.44 -0.354 0.485 -0.3 L 0.489 -0.295 Q 0.495 -0.28700000000000003 0.508 -0.272 M 0.534 -0.23700000000000002 L 0.63 -0.114 Q 0.631 -0.114 0.631 -0.113 L 0.635 -0.109 Q 0.7010000000000001 -0.037 0.767 -0.037 Q 0.839 -0.037 0.886 -0.10200000000000001 Q 0.921 -0.151 0.921 -0.216 Q 0.921 -0.304 0.868 -0.362 Q 0.8290000000000001 -0.405 0.773 -0.41000000000000003 L 0.761 -0.41000000000000003 Q 0.635 -0.41000000000000003 0.539 -0.246 Q 0.537 -0.242 0.534 -0.23700000000000002 M 0.465 -0.194 L 0.465 -0.194 L 0.369 -0.317 L 0.368 -0.318 L 0.364 -0.322 Q 0.298 -0.394 0.232 -0.394 Q 0.16 -0.394 0.113 -0.329 Q 0.078 -0.28 0.078 -0.215 Q 0.078 -0.127 0.131 -0.069 Q 0.17400000000000002 -0.021 0.23800000000000002 -0.021 Q 0.364 -0.021 0.46 -0.185 Q 0.462 -0.189 0.465 -0.194 Z" />
                </g>
                <g transform="translate(7.079412698412698,14.002710114285714) scale(0.7,0.7)">
                    <path fill="rgb(0,0,0)" stroke="none" paint-order="stroke fill markers"
                        d=" M 0.46 -0.32 Q 0.46 -0.17400000000000002 0.423 -0.094 Q 0.364 0.018000000000000002 0.249 0.022 Q 0.158 0.022 0.10300000000000001 -0.05 Q 0.092 -0.063 0.084 -0.079 Q 0.039 -0.162 0.039 -0.32 Q 0.039 -0.467 0.076 -0.547 Q 0.126 -0.659 0.23800000000000002 -0.666 L 0.25 -0.666 Q 0.339 -0.666 0.395 -0.595 L 0.395 -0.594 Q 0.40900000000000003 -0.5760000000000001 0.42 -0.554 Q 0.46 -0.46900000000000003 0.46 -0.32 M 0.249 0 L 0.249 0 Q 0.312 0 0.34600000000000003 -0.061 Q 0.36 -0.088 0.366 -0.125 Q 0.377 -0.189 0.377 -0.332 Q 0.377 -0.47100000000000003 0.367 -0.527 Q 0.34900000000000003 -0.622 0.275 -0.641 Q 0.262 -0.644 0.249 -0.644 Q 0.179 -0.644 0.147 -0.5740000000000001 Q 0.136 -0.55 0.13 -0.516 Q 0.122 -0.462 0.122 -0.332 Q 0.122 -0.181 0.133 -0.121 Q 0.151 -0.025 0.221 -0.004 Q 0.23500000000000001 0 0.249 0 Z" />
                </g>
                <g transform="translate(8.413799936743649,13.106710114285713)">
                    <path fill="rgb(0,0,0)" stroke="none" paint-order="stroke fill markers"
                        d=" M 0.334 -0.302 L 0.3 -0.165 Q 0.28300000000000003 -0.097 0.28300000000000003 -0.077 Q 0.28300000000000003 -0.025 0.32 -0.014 Q 0.328 -0.011 0.338 -0.011 Q 0.388 -0.011 0.429 -0.061 Q 0.456 -0.093 0.47100000000000003 -0.14200000000000002 Q 0.47400000000000003 -0.153 0.484 -0.153 Q 0.496 -0.153 0.496 -0.14300000000000002 Q 0.496 -0.11800000000000001 0.465 -0.07100000000000001 Q 0.41100000000000003 0.011 0.336 0.011 Q 0.268 0.011 0.23700000000000002 -0.046 Q 0.231 -0.055 0.228 -0.065 Q 0.20400000000000001 -0.017 0.162 0.002 Q 0.14300000000000002 0.011 0.123 0.011 Q 0.063 0.011 0.039 -0.024 Q 0.029 -0.037 0.029 -0.055 Q 0.029 -0.092 0.061 -0.107 Q 0.07200000000000001 -0.113 0.084 -0.113 Q 0.114 -0.113 0.12 -0.088 Q 0.121 -0.083 0.121 -0.078 Q 0.121 -0.044 0.08700000000000001 -0.028 Q 0.081 -0.025 0.074 -0.024 Q 0.095 -0.011 0.124 -0.011 Q 0.177 -0.011 0.20800000000000002 -0.082 Q 0.214 -0.097 0.219 -0.115 Q 0.273 -0.319 0.273 -0.353 Q 0.267 -0.41500000000000004 0.219 -0.42 Q 0.167 -0.42 0.124 -0.367 L 0.124 -0.366 Q 0.124 -0.365 0.123 -0.365 Q 0.108 -0.34500000000000003 0.096 -0.319 Q 0.091 -0.307 0.08700000000000001 -0.295 L 0.085 -0.289 Q 0.083 -0.278 0.07200000000000001 -0.278 Q 0.06 -0.278 0.06 -0.28800000000000003 Q 0.06 -0.313 0.092 -0.36 Q 0.146 -0.442 0.221 -0.442 Q 0.298 -0.442 0.329 -0.366 Q 0.361 -0.428 0.41400000000000003 -0.44 Q 0.424 -0.442 0.434 -0.442 Q 0.493 -0.442 0.517 -0.40900000000000003 Q 0.527 -0.395 0.527 -0.376 Q 0.527 -0.335 0.49 -0.321 Q 0.481 -0.318 0.47300000000000003 -0.318 Q 0.442 -0.318 0.436 -0.34500000000000003 Q 0.435 -0.34900000000000003 0.435 -0.353 Q 0.435 -0.383 0.464 -0.4 Q 0.47300000000000003 -0.405 0.483 -0.40700000000000003 Q 0.462 -0.42 0.433 -0.42 Q 0.365 -0.42 0.337 -0.314 Q 0.335 -0.308 0.334 -0.302 Z" />
                </g>
                <g transform="translate(8.985799936743648,12.693818114285714) scale(0.7,0.7)">
                    <path fill="rgb(0,0,0)" stroke="none" paint-order="stroke fill markers"
                        d=" M 0.47700000000000004 -0.23600000000000002 L 0.47700000000000004 -0.23600000000000002 L 0.47700000000000004 -0.17400000000000002 Q 0.542 -0.255 0.5750000000000001 -0.372 Q 0.585 -0.392 0.59 -0.393 Q 0.602 -0.393 0.602 -0.383 Q 0.602 -0.366 0.579 -0.307 Q 0.545 -0.221 0.487 -0.148 Q 0.47700000000000004 -0.128 0.47700000000000004 -0.113 Q 0.47700000000000004 -0.011 0.508 -0.011 Q 0.539 -0.011 0.558 -0.046 Q 0.561 -0.052000000000000005 0.5640000000000001 -0.06 Q 0.5680000000000001 -0.07 0.577 -0.07 Q 0.589 -0.07 0.589 -0.06 Q 0.589 -0.041 0.5640000000000001 -0.015 Q 0.538 0.011 0.505 0.011 Q 0.442 0.011 0.418 -0.058 Q 0.41600000000000004 -0.065 0.41400000000000003 -0.073 Q 0.309 0.011 0.203 0.011 Q 0.109 0.011 0.065 -0.064 Q 0.041 -0.105 0.041 -0.158 Q 0.041 -0.26 0.11900000000000001 -0.34700000000000003 Q 0.196 -0.433 0.293 -0.441 Q 0.302 -0.442 0.31 -0.442 Q 0.394 -0.442 0.44 -0.376 Q 0.44 -0.375 0.441 -0.375 Q 0.47700000000000004 -0.322 0.47700000000000004 -0.23600000000000002 M 0.41000000000000003 -0.099 L 0.41000000000000003 -0.099 Q 0.40800000000000003 -0.116 0.40800000000000003 -0.211 Q 0.40800000000000003 -0.334 0.381 -0.379 Q 0.369 -0.399 0.352 -0.40900000000000003 L 0.35100000000000003 -0.41000000000000003 L 0.35100000000000003 -0.41000000000000003 L 0.35000000000000003 -0.41000000000000003 Q 0.332 -0.42 0.309 -0.42 Q 0.23800000000000002 -0.42 0.181 -0.34 L 0.17300000000000001 -0.328 Q 0.137 -0.27 0.12 -0.166 Q 0.115 -0.138 0.115 -0.12 Q 0.115 -0.036000000000000004 0.17400000000000002 -0.016 Q 0.188 -0.011 0.20500000000000002 -0.011 Q 0.309 -0.011 0.41000000000000003 -0.099 Z" />
                </g>
                <g transform="translate(9.436599936743647,12.693818114285714) scale(0.7,0.7)">
                    <path fill="rgb(0,0,0)" stroke="none" paint-order="stroke fill markers"
                        d=" M 0.661 -0.23 L 0.116 -0.23 Q 0.084 -0.23 0.083 -0.25 Q 0.083 -0.27 0.116 -0.27 L 0.661 -0.27 Q 0.6930000000000001 -0.27 0.6940000000000001 -0.25 Q 0.6940000000000001 -0.23 0.661 -0.23 Z" />
                </g>
                <g transform="translate(9.981199936743646,12.693818114285714) scale(0.7,0.7)">
                    <path fill="rgb(0,0,0)" stroke="none" paint-order="stroke fill markers"
                        d=" M 0.294 -0.64 L 0.294 -0.079 Q 0.294 -0.049 0.306 -0.041 Q 0.323 -0.031 0.387 -0.031 L 0.419 -0.031 L 0.419 0 Q 0.384 -0.003 0.257 -0.003 Q 0.13 -0.003 0.095 0 L 0.095 -0.031 L 0.127 -0.031 Q 0.20400000000000001 -0.031 0.215 -0.049 L 0.216 -0.05 Q 0.22 -0.058 0.22 -0.079 L 0.22 -0.597 Q 0.168 -0.5710000000000001 0.089 -0.5710000000000001 L 0.089 -0.602 Q 0.209 -0.602 0.271 -0.666 Q 0.29 -0.666 0.293 -0.659 L 0.293 -0.659 L 0.293 -0.658 Q 0.294 -0.655 0.294 -0.64 Z" />
                </g>
                <g transform="translate(10.354920508407934,13.106710114285713)">
                    <path fill="rgb(0,0,0)" stroke="none" paint-order="stroke fill markers"
                        d=" M 0.187 -0.231 L 0.134 -0.231 Q 0.11800000000000001 -0.166 0.11800000000000001 -0.127 Q 0.11800000000000001 -0.048 0.164 -0.021 Q 0.181 -0.011 0.20500000000000002 -0.011 Q 0.295 -0.011 0.367 -0.07100000000000001 Q 0.388 -0.088 0.405 -0.11 Q 0.41200000000000003 -0.12 0.418 -0.12 Q 0.427 -0.12 0.43 -0.107 Q 0.43 -0.096 0.396 -0.064 Q 0.313 0.011 0.203 0.011 Q 0.113 0.011 0.07100000000000001 -0.066 Q 0.046 -0.111 0.046 -0.17 Q 0.046 -0.301 0.148 -0.382 Q 0.223 -0.442 0.308 -0.442 Q 0.38 -0.442 0.406 -0.392 Q 0.41500000000000004 -0.376 0.41500000000000004 -0.357 Q 0.41500000000000004 -0.305 0.37 -0.271 L 0.369 -0.27 Q 0.356 -0.261 0.34 -0.254 Q 0.28500000000000003 -0.231 0.187 -0.231 M 0.14 -0.253 L 0.181 -0.253 Q 0.382 -0.253 0.382 -0.357 Q 0.382 -0.397 0.343 -0.41400000000000003 L 0.343 -0.41400000000000003 Q 0.329 -0.419 0.308 -0.42 Q 0.252 -0.42 0.20500000000000002 -0.374 Q 0.16 -0.33 0.14 -0.253 Z" />
                </g>
                <g transform="translate(10.820920508407934,12.693818114285714) scale(0.7,0.7)">
                    <path fill="rgb(0,0,0)" stroke="none" paint-order="stroke fill markers"
                        d=" M 0.661 -0.23 L 0.116 -0.23 Q 0.084 -0.23 0.083 -0.25 Q 0.083 -0.27 0.116 -0.27 L 0.661 -0.27 Q 0.6930000000000001 -0.27 0.6940000000000001 -0.25 Q 0.6940000000000001 -0.23 0.661 -0.23 Z" />
                </g>
                <g transform="translate(11.365520508407933,12.693818114285714) scale(0.7,0.7)">
                    <path fill="rgb(0,0,0)" stroke="none" paint-order="stroke fill markers"
                        d=" M 0.334 -0.302 L 0.3 -0.165 Q 0.28300000000000003 -0.097 0.28300000000000003 -0.077 Q 0.28300000000000003 -0.025 0.32 -0.014 Q 0.328 -0.011 0.338 -0.011 Q 0.388 -0.011 0.429 -0.061 Q 0.456 -0.093 0.47100000000000003 -0.14200000000000002 Q 0.47400000000000003 -0.153 0.484 -0.153 Q 0.496 -0.153 0.496 -0.14300000000000002 Q 0.496 -0.11800000000000001 0.465 -0.07100000000000001 Q 0.41100000000000003 0.011 0.336 0.011 Q 0.268 0.011 0.23700000000000002 -0.046 Q 0.231 -0.055 0.228 -0.065 Q 0.20400000000000001 -0.017 0.162 0.002 Q 0.14300000000000002 0.011 0.123 0.011 Q 0.063 0.011 0.039 -0.024 Q 0.029 -0.037 0.029 -0.055 Q 0.029 -0.092 0.061 -0.107 Q 0.07200000000000001 -0.113 0.084 -0.113 Q 0.114 -0.113 0.12 -0.088 Q 0.121 -0.083 0.121 -0.078 Q 0.121 -0.044 0.08700000000000001 -0.028 Q 0.081 -0.025 0.074 -0.024 Q 0.095 -0.011 0.124 -0.011 Q 0.177 -0.011 0.20800000000000002 -0.082 Q 0.214 -0.097 0.219 -0.115 Q 0.273 -0.319 0.273 -0.353 Q 0.267 -0.41500000000000004 0.219 -0.42 Q 0.167 -0.42 0.124 -0.367 L 0.124 -0.366 Q 0.124 -0.365 0.123 -0.365 Q 0.108 -0.34500000000000003 0.096 -0.319 Q 0.091 -0.307 0.08700000000000001 -0.295 L 0.085 -0.289 Q 0.083 -0.278 0.07200000000000001 -0.278 Q 0.06 -0.278 0.06 -0.28800000000000003 Q 0.06 -0.313 0.092 -0.36 Q 0.146 -0.442 0.221 -0.442 Q 0.298 -0.442 0.329 -0.366 Q 0.361 -0.428 0.41400000000000003 -0.44 Q 0.424 -0.442 0.434 -0.442 Q 0.493 -0.442 0.517 -0.40900000000000003 Q 0.527 -0.395 0.527 -0.376 Q 0.527 -0.335 0.49 -0.321 Q 0.481 -0.318 0.47300000000000003 -0.318 Q 0.442 -0.318 0.436 -0.34500000000000003 Q 0.435 -0.34900000000000003 0.435 -0.353 Q 0.435 -0.383 0.464 -0.4 Q 0.47300000000000003 -0.405 0.483 -0.40700000000000003 Q 0.462 -0.42 0.433 -0.42 Q 0.365 -0.42 0.337 -0.314 Q 0.335 -0.308 0.334 -0.302 Z" />
                </g>
                <g transform="translate(11.956307746738887,13.106710114285713)">
                    <path fill="rgb(0,0,0)" stroke="none" paint-order="stroke fill markers"
                        d=" M 0.516 -0.683 L 0.372 -0.105 Q 0.366 -0.08 0.366 -0.057 Q 0.366 -0.011 0.396 -0.011 Q 0.434 -0.011 0.46 -0.091 Q 0.465 -0.108 0.47200000000000003 -0.135 Q 0.48 -0.152 0.486 -0.153 Q 0.498 -0.153 0.498 -0.14300000000000002 Q 0.498 -0.128 0.48 -0.073 Q 0.47400000000000003 -0.056 0.468 -0.044 Q 0.44 0.011 0.394 0.011 Q 0.338 0.011 0.313 -0.037 Q 0.306 -0.049 0.303 -0.064 Q 0.24 0.011 0.17300000000000001 0.011 Q 0.098 0.011 0.062 -0.057 Q 0.04 -0.097 0.04 -0.149 Q 0.04 -0.257 0.115 -0.34900000000000003 Q 0.185 -0.433 0.267 -0.441 Q 0.274 -0.442 0.281 -0.442 Q 0.342 -0.442 0.373 -0.378 L 0.433 -0.615 L 0.436 -0.635 Q 0.436 -0.646 0.422 -0.649 Q 0.41000000000000003 -0.652 0.386 -0.652 Q 0.364 -0.652 0.362 -0.664 Q 0.362 -0.681 0.376 -0.683 Q 0.47000000000000003 -0.6940000000000001 0.503 -0.6940000000000001 Q 0.516 -0.6940000000000001 0.516 -0.683 M 0.308 -0.11900000000000001 L 0.308 -0.11900000000000001 L 0.358 -0.315 Q 0.361 -0.33 0.361 -0.332 Q 0.361 -0.353 0.343 -0.383 Q 0.321 -0.42 0.28200000000000003 -0.42 Q 0.23 -0.42 0.183 -0.352 Q 0.17400000000000002 -0.339 0.166 -0.324 Q 0.137 -0.266 0.117 -0.159 Q 0.111 -0.125 0.111 -0.105 Q 0.111 -0.037 0.149 -0.017 Q 0.16 -0.011 0.17500000000000002 -0.011 Q 0.231 -0.011 0.28800000000000003 -0.082 Q 0.302 -0.098 0.307 -0.115 L 0.307 -0.116 Q 0.308 -0.11800000000000001 0.308 -0.11900000000000001 Z" />
                </g>
                <g transform="translate(12.476307746738886,13.106710114285713)">
                    <path fill="rgb(0,0,0)" stroke="none" paint-order="stroke fill markers"
                        d=" M 0.334 -0.302 L 0.3 -0.165 Q 0.28300000000000003 -0.097 0.28300000000000003 -0.077 Q 0.28300000000000003 -0.025 0.32 -0.014 Q 0.328 -0.011 0.338 -0.011 Q 0.388 -0.011 0.429 -0.061 Q 0.456 -0.093 0.47100000000000003 -0.14200000000000002 Q 0.47400000000000003 -0.153 0.484 -0.153 Q 0.496 -0.153 0.496 -0.14300000000000002 Q 0.496 -0.11800000000000001 0.465 -0.07100000000000001 Q 0.41100000000000003 0.011 0.336 0.011 Q 0.268 0.011 0.23700000000000002 -0.046 Q 0.231 -0.055 0.228 -0.065 Q 0.20400000000000001 -0.017 0.162 0.002 Q 0.14300000000000002 0.011 0.123 0.011 Q 0.063 0.011 0.039 -0.024 Q 0.029 -0.037 0.029 -0.055 Q 0.029 -0.092 0.061 -0.107 Q 0.07200000000000001 -0.113 0.084 -0.113 Q 0.114 -0.113 0.12 -0.088 Q 0.121 -0.083 0.121 -0.078 Q 0.121 -0.044 0.08700000000000001 -0.028 Q 0.081 -0.025 0.074 -0.024 Q 0.095 -0.011 0.124 -0.011 Q 0.177 -0.011 0.20800000000000002 -0.082 Q 0.214 -0.097 0.219 -0.115 Q 0.273 -0.319 0.273 -0.353 Q 0.267 -0.41500000000000004 0.219 -0.42 Q 0.167 -0.42 0.124 -0.367 L 0.124 -0.366 Q 0.124 -0.365 0.123 -0.365 Q 0.108 -0.34500000000000003 0.096 -0.319 Q 0.091 -0.307 0.08700000000000001 -0.295 L 0.085 -0.289 Q 0.083 -0.278 0.07200000000000001 -0.278 Q 0.06 -0.278 0.06 -0.28800000000000003 Q 0.06 -0.313 0.092 -0.36 Q 0.146 -0.442 0.221 -0.442 Q 0.298 -0.442 0.329 -0.366 Q 0.361 -0.428 0.41400000000000003 -0.44 Q 0.424 -0.442 0.434 -0.442 Q 0.493 -0.442 0.517 -0.40900000000000003 Q 0.527 -0.395 0.527 -0.376 Q 0.527 -0.335 0.49 -0.321 Q 0.481 -0.318 0.47300000000000003 -0.318 Q 0.442 -0.318 0.436 -0.34500000000000003 Q 0.435 -0.34900000000000003 0.435 -0.353 Q 0.435 -0.383 0.464 -0.4 Q 0.47300000000000003 -0.405 0.483 -0.40700000000000003 Q 0.462 -0.42 0.433 -0.42 Q 0.365 -0.42 0.337 -0.314 Q 0.335 -0.308 0.334 -0.302 Z" />
                </g>
            </g>
        </g>
    </g>
</svg>